# xmcd
#
# Track frame offsets: 
#        150
#        21713
#        36550
#        52315
#        66868
#        76913
#        92438
#        106103
#        121703
#        141653
#        157973
#        170820
#        211165
#        229393
#
# Disc length: 3247 seconds
#
# Revision: 1
# Processed by: cddbd v1.5.2PL0 Copyright (c) Steve Scherf et al.
# Submitted via: ExactAudioCopy v1.3
#
DISCID=c90cad0e
DTITLE=Medicine Head - New Bottles Old Medicine
DYEAR=1970
DGENRE=Rock
TTITLE0=When Night Falls
TTITLE1=Ooee Baby
TTITLE2=Next Time The Sun Comes Round
TTITLE3=This Love Of Old
TTITLE4=Home's Odyssey
TTITLE5=Oh My Heart To Peace
TTITLE6=Do It Now
TTITLE7=Be It As We Are
TTITLE8=Fire Under Mountain
TTITLE9=Two Men Now
TTITLE10=Crazy 'Bout You Baby
TTITLE11=Goin' Home
TTITLE12=His Guiding Hand
TTITLE13=Walkin' Blues
EXTD=
EXTT0=
EXTT1=
EXTT2=
EXTT3=
EXTT4=
EXTT5=
EXTT6=
EXTT7=
EXTT8=
EXTT9=
EXTT10=
EXTT11=
EXTT12=
EXTT13=
PLAYORDER=
